<svg width="32" height="32" viewBox="0 0 32 32" fill="none" xmlns="http://www.w3.org/2000/svg">
<path fill-rule="evenodd" clip-rule="evenodd" d="M21.6119 8.43952C21.1807 8.43952 20.7623 8.49552 20.3631 8.60032C19.6175 6.48352 17.5999 4.96592 15.2287 4.96592C12.3223 4.96592 9.94713 7.24272 9.79193 10.1107C9.61353 10.0875 9.43353 10.0707 9.24953 10.0707C6.98793 10.0707 5.15513 11.9043 5.15513 14.1659C5.15513 16.4275 6.98793 18.2603 9.24953 18.2603H21.6119C24.3239 18.2603 26.5223 16.0627 26.5223 13.3499C26.5223 10.6379 24.3239 8.43952 21.6119 8.43952Z" fill="#D0D2D3"/>
<path fill-rule="evenodd" clip-rule="evenodd" d="M12.2009 20.1954C12.2009 20.1954 10.7169 20.9266 10.4737 21.0794C10.2297 21.2322 10.1377 21.3034 10.0177 21.4794C9.64254 22.0322 9.78574 22.785 10.3385 23.1602C10.8913 23.5362 11.6441 23.393 12.0185 22.8402C12.1417 22.6602 12.1617 22.561 12.2241 22.2562C12.2865 21.9514 12.3905 20.3234 12.3905 20.3234C12.4025 20.1938 12.3169 20.1362 12.2009 20.1954Z" fill="#26A9E0"/>
<path fill-rule="evenodd" clip-rule="evenodd" d="M16.9385 20.1954C16.9385 20.1954 15.4545 20.9266 15.2121 21.0794C14.9681 21.2322 14.8761 21.3034 14.7561 21.4794C14.3809 22.0322 14.5233 22.785 15.0761 23.1602C15.6289 23.5362 16.3817 23.393 16.7569 22.8402C16.8801 22.6602 16.9001 22.561 16.9625 22.2562C17.0249 21.9514 17.1289 20.3234 17.1289 20.3234C17.1401 20.1938 17.0545 20.1362 16.9385 20.1954Z" fill="#26A9E0"/>
<path fill-rule="evenodd" clip-rule="evenodd" d="M16.9385 24.1941C16.9385 24.1941 15.4545 24.9262 15.2121 25.0782C14.9681 25.2318 14.8761 25.3022 14.7561 25.4782C14.3809 26.031 14.5233 26.7838 15.0761 27.1598C15.6289 27.535 16.3817 27.3918 16.7569 26.839C16.8801 26.659 16.9001 26.5598 16.9625 26.255C17.0249 25.951 17.1289 24.3229 17.1289 24.3229C17.1401 24.1933 17.0545 24.1349 16.9385 24.1941Z" fill="#26A9E0"/>
<path fill-rule="evenodd" clip-rule="evenodd" d="M21.7651 20.1954C21.7651 20.1954 20.2811 20.9266 20.0379 21.0794C19.7939 21.2322 19.7019 21.3034 19.5819 21.4794C19.2067 22.0322 19.3499 22.785 19.9027 23.1602C20.4555 23.5362 21.2083 23.393 21.5835 22.8402C21.7067 22.6602 21.7267 22.561 21.7883 22.2562C21.8507 21.9514 21.9547 20.3234 21.9547 20.3234C21.9667 20.1938 21.8811 20.1362 21.7651 20.1954Z" fill="#26A9E0"/>
<path fill-rule="evenodd" clip-rule="evenodd" d="M12.2009 24.1941C12.2009 24.1941 10.7169 24.9262 10.4737 25.0782C10.2297 25.2318 10.1377 25.3022 10.0177 25.4782C9.64254 26.031 9.78574 26.7838 10.3385 27.1598C10.8913 27.535 11.6441 27.3918 12.0185 26.839C12.1417 26.659 12.1617 26.5598 12.2241 26.255C12.2865 25.951 12.3905 24.3229 12.3905 24.3229C12.4025 24.1933 12.3169 24.1349 12.2009 24.1941Z" fill="#26A9E0"/>
<path fill-rule="evenodd" clip-rule="evenodd" d="M21.7651 24.1941C21.7651 24.1941 20.2811 24.9262 20.0379 25.0782C19.7939 25.2318 19.7019 25.3022 19.5819 25.4782C19.2067 26.031 19.3499 26.7838 19.9027 27.1598C20.4555 27.535 21.2083 27.3918 21.5835 26.839C21.7067 26.659 21.7267 26.5598 21.7883 26.255C21.8507 25.951 21.9547 24.3229 21.9547 24.3229C21.9667 24.1933 21.8811 24.1349 21.7651 24.1941Z" fill="#26A9E0"/>
<path fill-rule="evenodd" clip-rule="evenodd" d="M26.3306 20.1954C26.3306 20.1954 24.8466 20.9266 24.6034 21.0794C24.3594 21.2322 24.2674 21.3034 24.1474 21.4794C23.7722 22.0322 23.9154 22.785 24.4682 23.1602C25.021 23.5362 25.7738 23.393 26.149 22.8402C26.2722 22.6602 26.2922 22.561 26.3538 22.2562C26.4162 21.9514 26.5202 20.3234 26.5202 20.3234C26.5322 20.1938 26.4466 20.1362 26.3306 20.1954Z" fill="#26A9E0"/>
<path fill-rule="evenodd" clip-rule="evenodd" d="M7.54704 20.1954C7.54704 20.1954 6.06304 20.9266 5.81984 21.0794C5.57664 21.2322 5.48384 21.3034 5.36384 21.4794C4.98864 22.0322 5.13184 22.785 5.68544 23.1602C6.23744 23.5362 6.99024 23.393 7.36544 22.8402C7.48864 22.6602 7.50864 22.561 7.57104 22.2562C7.63344 21.9514 7.73744 20.3234 7.73744 20.3234C7.74864 20.1938 7.66304 20.1362 7.54704 20.1954Z" fill="#26A9E0"/>
</svg>
