<svg width="32" height="32" viewBox="0 0 32 32" fill="none" xmlns="http://www.w3.org/2000/svg">
<path fill-rule="evenodd" clip-rule="evenodd" d="M9.60406 15.8458C9.60406 19.205 12.3273 21.9282 15.6865 21.9282C19.0457 21.9282 21.7689 19.205 21.7689 15.8458C21.7689 12.4866 19.0457 9.76335 15.6865 9.76335C12.3273 9.76335 9.60406 12.4866 9.60406 15.8458Z" fill="#FF9933"/>
<path fill-rule="evenodd" clip-rule="evenodd" d="M26.6076 14.877H24.386C23.8652 14.877 23.4396 15.3026 23.4396 15.8234V15.8682C23.4396 16.389 23.8652 16.8146 24.386 16.8146H26.6076C27.1284 16.8146 27.554 16.389 27.554 15.8682V15.8234C27.554 15.3026 27.1284 14.877 26.6076 14.877Z" fill="#FF9933"/>
<path fill-rule="evenodd" clip-rule="evenodd" d="M7.93264 15.868V15.8232C7.93264 15.3024 7.50704 14.8768 6.98624 14.8768H4.76464C4.24384 14.8768 3.81744 15.3024 3.81744 15.8232V15.868C3.81744 16.3888 4.24384 16.8144 4.76464 16.8144H6.98624C7.50704 16.8144 7.93264 16.3888 7.93264 15.868Z" fill="#FF9933"/>
<path fill-rule="evenodd" clip-rule="evenodd" d="M21.6397 5.57857L21.6013 5.55617C21.1501 5.29617 20.5685 5.45137 20.3077 5.90257L19.1973 7.82737C18.9365 8.27777 19.0925 8.86017 19.5429 9.12017L19.5821 9.14257C20.0325 9.40257 20.6149 9.24657 20.8749 8.79537L21.9861 6.87137C22.2461 6.42097 22.0901 5.83857 21.6397 5.57857Z" fill="#FF9933"/>
<path fill-rule="evenodd" clip-rule="evenodd" d="M11.8287 22.5715L11.7903 22.5491C11.3391 22.2883 10.7575 22.4443 10.4975 22.8955L9.38629 24.8195C9.12629 25.2707 9.28149 25.8523 9.73269 26.1123L9.77109 26.1355C10.2223 26.3955 10.8039 26.2395 11.0639 25.7883L12.1751 23.8643C12.4351 23.4131 12.2799 22.8315 11.8287 22.5715Z" fill="#FF9933"/>
<path fill-rule="evenodd" clip-rule="evenodd" d="M20.8748 22.8954C20.6148 22.445 20.0324 22.289 19.582 22.549L19.5428 22.5714C19.0924 22.8314 18.9364 23.413 19.1972 23.8642L20.3084 25.789C20.5684 26.2394 21.15 26.3954 21.6012 26.1354L21.6396 26.1122C22.0908 25.8522 22.246 25.2706 21.986 24.8194L20.8748 22.8954Z" fill="#FF9933"/>
<path fill-rule="evenodd" clip-rule="evenodd" d="M10.4974 8.79576C10.7574 9.24696 11.339 9.40216 11.7902 9.14216L11.8286 9.11976C12.2798 8.85976 12.435 8.27816 12.175 7.82696L11.0638 5.90296C10.8038 5.45176 10.2222 5.29576 9.77103 5.55656L9.73263 5.57896C9.28143 5.83896 9.12623 6.42056 9.38623 6.87176L10.4974 8.79576Z" fill="#FF9933"/>
<path fill-rule="evenodd" clip-rule="evenodd" d="M8.63616 10.6567L6.71216 9.54551C6.26096 9.28551 5.67936 9.44151 5.41936 9.89191L5.39696 9.93111C5.13616 10.3815 5.29216 10.9639 5.74336 11.2239L7.66736 12.3351C8.11856 12.5951 8.70016 12.4391 8.96016 11.9887L8.98256 11.9495C9.24336 11.4991 9.08656 10.9167 8.63616 10.6567Z" fill="#FF9933"/>
<path fill-rule="evenodd" clip-rule="evenodd" d="M25.6291 20.4676L23.7043 19.3564C23.2539 19.0964 22.6723 19.2516 22.4123 19.7028L22.3899 19.7412C22.1291 20.1924 22.2851 20.774 22.7355 21.034L24.6603 22.1452C25.1115 22.4052 25.6931 22.25 25.9531 21.7996L25.9755 21.7604C26.2355 21.3092 26.0795 20.7276 25.6291 20.4676Z" fill="#FF9933"/>
<path fill-rule="evenodd" clip-rule="evenodd" d="M8.96041 19.7028C8.69961 19.2524 8.11881 19.0964 7.66761 19.3564L5.74361 20.4676C5.29241 20.7276 5.13641 21.3092 5.39641 21.7604L5.41961 21.7996C5.67961 22.25 6.26121 22.4052 6.71161 22.1452L8.63641 21.0348C9.08681 20.774 9.24361 20.1924 8.98281 19.7412L8.96041 19.7028Z" fill="#FF9933"/>
<path fill-rule="evenodd" clip-rule="evenodd" d="M22.4119 11.9883C22.6719 12.4387 23.2543 12.5947 23.7047 12.3347L25.6287 11.2235C26.0799 10.9635 26.2359 10.3819 25.9759 9.93071L25.9527 9.89231C25.6927 9.44111 25.1111 9.28591 24.6607 9.54591L22.7359 10.6563C22.2847 10.9171 22.1287 11.4987 22.3895 11.9499L22.4119 11.9883Z" fill="#FF9933"/>
<path fill-rule="evenodd" clip-rule="evenodd" d="M15.6638 8.09224H15.7086C16.2294 8.09224 16.655 7.66664 16.655 7.14584V4.92424C16.655 4.40344 16.2294 3.97704 15.7086 3.97704H15.6638C15.143 3.97704 14.7174 4.40344 14.7174 4.92424V7.14584C14.7174 7.66664 15.143 8.09224 15.6638 8.09224Z" fill="#FF9933"/>
<path fill-rule="evenodd" clip-rule="evenodd" d="M15.7084 23.5989H15.6636C15.1428 23.5989 14.7172 24.0245 14.7172 24.5453V26.7677C14.7172 27.2877 15.1428 27.7141 15.6636 27.7141H15.7084C16.2292 27.7141 16.6548 27.2877 16.6548 26.7677V24.5453C16.6548 24.0245 16.2292 23.5989 15.7084 23.5989Z" fill="#FF9933"/>
</svg>
