<svg width="32" height="32" viewBox="0 0 32 32" fill="none" xmlns="http://www.w3.org/2000/svg">
<path fill-rule="evenodd" clip-rule="evenodd" d="M21.6447 8.17704C21.2135 8.17704 20.7951 8.23304 20.3967 8.33704C19.6503 6.22024 17.6335 4.70344 15.2615 4.70344C12.3551 4.70344 9.98072 6.98024 9.82552 9.84744C9.64712 9.82424 9.46712 9.80824 9.28312 9.80824C7.02152 9.80824 5.18872 11.6418 5.18872 13.9034C5.18872 16.1642 7.02152 17.9978 9.28312 17.9978H21.6447C24.3567 17.9978 26.5551 15.8002 26.5551 13.0874C26.5551 10.3754 24.3567 8.17704 21.6447 8.17704Z" fill="#D0D2D3"/>
<path fill-rule="evenodd" clip-rule="evenodd" d="M22.2026 26.0547L21.237 25.6763L21.9898 24.9643C22.0554 24.9019 22.0578 24.7971 21.9962 24.7315L21.6914 24.4099C21.6298 24.3443 21.525 24.3411 21.4594 24.4043L20.7754 25.0523L20.5946 24.1267C20.5778 24.0379 20.4906 23.9787 20.4018 23.9963L19.9674 24.0811C19.8794 24.0987 19.8202 24.1851 19.8378 24.2739L20.0186 25.2003L19.1402 24.8555C19.0554 24.8227 18.9594 24.8651 18.9266 24.9483L18.765 25.3611C18.7322 25.4443 18.7746 25.5403 18.8586 25.5731L19.8242 25.9515L19.0714 26.6651C19.0058 26.7275 19.0026 26.8323 19.065 26.8979L19.369 27.2187C19.4314 27.2843 19.5362 27.2875 19.6018 27.2251L20.2858 26.5763L20.4666 27.5027C20.4842 27.5915 20.5714 27.6491 20.6594 27.6323L21.0938 27.5475C21.1826 27.5307 21.241 27.4435 21.2234 27.3547L21.0434 26.4299L21.921 26.7723C22.0058 26.8059 22.1018 26.7643 22.1338 26.6795L22.2954 26.2683C22.3282 26.1835 22.2858 26.0875 22.2026 26.0547Z" fill="#26A9E0"/>
<path fill-rule="evenodd" clip-rule="evenodd" d="M22.2026 21.6298L21.237 21.2514L21.9898 20.5386C22.0554 20.4762 22.0578 20.3722 21.9962 20.3066L21.6914 19.985C21.6298 19.9194 21.525 19.9162 21.4594 19.9794L20.7754 20.6274L20.5946 19.701C20.5778 19.613 20.4906 19.5538 20.4018 19.5714L19.9674 19.6554C19.8794 19.6738 19.8202 19.7602 19.8378 19.8482L20.0186 20.7746L19.1402 20.4306C19.0554 20.3978 18.9594 20.4402 18.9266 20.5234L18.765 20.9354C18.7322 21.0194 18.7746 21.1154 18.8586 21.1482L19.8242 21.5266L19.0714 22.2402C19.0058 22.3018 19.0026 22.4066 19.065 22.473L19.369 22.7938C19.4314 22.8594 19.5362 22.8618 19.6018 22.8002L20.2858 22.1514L20.4666 23.0778C20.4842 23.1658 20.5714 23.2242 20.6594 23.2074L21.0938 23.1226C21.1826 23.105 21.241 23.0186 21.2234 22.9298L21.0434 22.0042L21.921 22.3474C22.0058 22.3802 22.1018 22.3394 22.1338 22.2546L22.2954 21.8434C22.3282 21.7586 22.2858 21.6626 22.2026 21.6298Z" fill="#26A9E0"/>
<path fill-rule="evenodd" clip-rule="evenodd" d="M17.5393 26.0547L16.5737 25.6763L17.3265 24.9643C17.3921 24.9019 17.3953 24.7971 17.3329 24.7315L17.0289 24.4099C16.9665 24.3443 16.8617 24.3411 16.7961 24.4043L16.1121 25.0523L15.9313 24.1267C15.9145 24.0379 15.8273 23.9787 15.7385 23.9963L15.3041 24.0811C15.2161 24.0987 15.1569 24.1851 15.1745 24.2739L15.3553 25.2003L14.4769 24.8555C14.3921 24.8227 14.2961 24.8651 14.2633 24.9483L14.1025 25.3611C14.0689 25.4443 14.1113 25.5403 14.1953 25.5731L15.1609 25.9515L14.4081 26.6651C14.3425 26.7275 14.3401 26.8323 14.4017 26.8979L14.7065 27.2187C14.7681 27.2843 14.8729 27.2875 14.9385 27.2251L15.6225 26.5763L15.8033 27.5027C15.8217 27.5915 15.9081 27.6491 15.9961 27.6323L16.4305 27.5475C16.5201 27.5307 16.5777 27.4435 16.5601 27.3547L16.3809 26.4299L17.2577 26.7723C17.3425 26.8059 17.4385 26.7643 17.4713 26.6795L17.6329 26.2683C17.6657 26.1835 17.6233 26.0875 17.5393 26.0547Z" fill="#26A9E0"/>
<path fill-rule="evenodd" clip-rule="evenodd" d="M17.5393 21.6298L16.5737 21.2514L17.3265 20.5386C17.3921 20.4762 17.3953 20.3722 17.3329 20.3066L17.0289 19.985C16.9665 19.9194 16.8617 19.9162 16.7961 19.9794L16.1121 20.6274L15.9313 19.701C15.9145 19.613 15.8273 19.5538 15.7385 19.5714L15.3041 19.6554C15.2161 19.6738 15.1569 19.7602 15.1745 19.8482L15.3553 20.7746L14.4769 20.4306C14.3921 20.3978 14.2961 20.4402 14.2633 20.5234L14.1025 20.9354C14.0689 21.0194 14.1113 21.1154 14.1953 21.1482L15.1609 21.5266L14.4081 22.2402C14.3425 22.3018 14.3401 22.4066 14.4017 22.473L14.7065 22.7938C14.7681 22.8594 14.8729 22.8618 14.9385 22.8002L15.6225 22.1514L15.8033 23.0778C15.8217 23.1658 15.9081 23.2242 15.9961 23.2074L16.4305 23.1226C16.5201 23.105 16.5777 23.0186 16.5601 22.9298L16.3809 22.0042L17.2577 22.3474C17.3425 22.3802 17.4385 22.3394 17.4713 22.2546L17.6329 21.8434C17.6657 21.7586 17.6233 21.6626 17.5393 21.6298Z" fill="#26A9E0"/>
<path fill-rule="evenodd" clip-rule="evenodd" d="M12.9963 21.6298L12.0307 21.2514L12.7835 20.5386C12.8491 20.4762 12.8523 20.3722 12.7899 20.3066L12.4859 19.985C12.4235 19.9194 12.3187 19.9162 12.2531 19.9794L11.5691 20.6274L11.3883 19.701C11.3715 19.613 11.2843 19.5538 11.1955 19.5714L10.7611 19.6554C10.6731 19.6738 10.6139 19.7602 10.6315 19.8482L10.8123 20.7746L9.93394 20.4306C9.84914 20.3978 9.75314 20.4402 9.72034 20.5234L9.55954 20.9354C9.52594 21.0194 9.56834 21.1154 9.65234 21.1482L10.6179 21.5266L9.86514 22.2402C9.79954 22.3018 9.79634 22.4066 9.85874 22.473L10.1627 22.7938C10.2251 22.8594 10.3299 22.8618 10.3955 22.8002L11.0795 22.1514L11.2603 23.0778C11.2787 23.1658 11.3651 23.2242 11.4531 23.2074L11.8875 23.1226C11.9763 23.105 12.0347 23.0186 12.0171 22.9298L11.8379 22.0042L12.7147 22.3474C12.7995 22.3802 12.8955 22.3394 12.9283 22.2546L13.0891 21.8434C13.1219 21.7586 13.0803 21.6626 12.9963 21.6298Z" fill="#26A9E0"/>
<path fill-rule="evenodd" clip-rule="evenodd" d="M12.9127 26.1579L11.9471 25.7795L12.6999 25.0675C12.7655 25.0051 12.7687 24.9003 12.7063 24.8347L12.4023 24.5131C12.3399 24.4475 12.2351 24.4451 12.1695 24.5075L11.4855 25.1555L11.3047 24.2299C11.2879 24.141 11.2007 24.0826 11.1119 24.1002L10.6775 24.1842C10.5895 24.2019 10.5303 24.2883 10.5479 24.3771L10.7287 25.3035L9.8503 24.9595C9.7655 24.9259 9.6695 24.9683 9.6367 25.0523L9.4759 25.4643C9.4423 25.5475 9.4847 25.6435 9.5687 25.6771L10.5343 26.0555L9.7815 26.7683C9.7159 26.8307 9.7127 26.9355 9.7751 27.0011L10.0791 27.3219C10.1415 27.3875 10.2463 27.3907 10.3119 27.3283L10.9959 26.6795L11.1767 27.6059C11.1951 27.6947 11.2815 27.7523 11.3695 27.7355L11.8039 27.6507C11.8935 27.6339 11.9511 27.5467 11.9335 27.4579L11.7543 26.5331L12.6311 26.8763C12.7159 26.9091 12.8119 26.8675 12.8447 26.7827L13.0063 26.3715C13.0391 26.2867 12.9967 26.1907 12.9127 26.1579Z" fill="#26A9E0"/>
<path fill-rule="evenodd" clip-rule="evenodd" d="M8.63615 21.6298L7.67055 21.2514L8.42335 20.5386C8.48975 20.4762 8.49215 20.3722 8.42975 20.3066L8.12575 19.985C8.06415 19.9194 7.95935 19.9162 7.89375 19.9794L7.20975 20.6274L7.02815 19.701C7.01135 19.613 6.92415 19.5538 6.83535 19.5714L6.40175 19.6554C6.31295 19.6738 6.25375 19.7602 6.27135 19.8482L6.45215 20.7746L5.57375 20.4306C5.48895 20.3978 5.39375 20.4402 5.36015 20.5234L5.19935 20.9354C5.16655 21.0194 5.20815 21.1154 5.29215 21.1482L6.25855 21.5266L5.50575 22.2402C5.43935 22.3018 5.43695 22.4066 5.49935 22.473L5.80335 22.7938C5.86495 22.8594 5.96975 22.8618 6.03535 22.8002L6.72015 22.1514L6.90095 23.0778C6.91855 23.1658 7.00495 23.2242 7.09375 23.2074L7.52735 23.1226C7.61695 23.105 7.67535 23.0186 7.65775 22.9298L7.47775 22.0042L8.35535 22.3474C8.43935 22.3802 8.53535 22.3394 8.56815 22.2546L8.72975 21.8434C8.76255 21.7586 8.72015 21.6626 8.63615 21.6298Z" fill="#26A9E0"/>
<path fill-rule="evenodd" clip-rule="evenodd" d="M26.4502 21.6298L25.4846 21.2514L26.2374 20.5386C26.3038 20.4762 26.3062 20.3722 26.2438 20.3066L25.9398 19.985C25.8782 19.9194 25.7734 19.9162 25.7078 19.9794L25.0238 20.6274L24.843 19.701C24.8254 19.613 24.7382 19.5538 24.6502 19.5714L24.2158 19.6554C24.127 19.6738 24.0678 19.7602 24.0854 19.8482L24.2662 20.7746L23.3878 20.4306C23.3038 20.3978 23.2078 20.4402 23.1742 20.5234L23.0134 20.9354C22.9806 21.0194 23.0222 21.1154 23.1062 21.1482L24.0726 21.5266L23.3198 22.2402C23.2534 22.3018 23.251 22.4066 23.3134 22.473L23.6174 22.7938C23.679 22.8594 23.7838 22.8618 23.8494 22.8002L24.5342 22.1514L24.715 23.0778C24.7326 23.1658 24.819 23.2242 24.9078 23.2074L25.3414 23.1226C25.431 23.105 25.4894 23.0186 25.4718 22.9298L25.2918 22.0042L26.1694 22.3474C26.2534 22.3802 26.3494 22.3394 26.3822 22.2546L26.5438 21.8434C26.5766 21.7586 26.5342 21.6626 26.4502 21.6298Z" fill="#26A9E0"/>
</svg>
