<svg width="32" height="32" viewBox="0 0 32 32" fill="none" xmlns="http://www.w3.org/2000/svg">
<path fill-rule="evenodd" clip-rule="evenodd" d="M21.6119 8.92817C21.1807 8.92817 20.7623 8.98417 20.3631 9.08817C19.6175 6.97137 17.5999 5.45457 15.2287 5.45457C12.3223 5.45457 9.94793 7.73137 9.79273 10.5986C9.61433 10.5754 9.43353 10.5594 9.24953 10.5594C6.98873 10.5594 5.15513 12.3922 5.15513 14.6538C5.15513 16.9154 6.98873 18.7482 9.24953 18.7482H21.6119C24.3239 18.7482 26.5223 16.5506 26.5223 13.8386C26.5223 11.1258 24.3239 8.92817 21.6119 8.92817Z" fill="#D0D2D3"/>
<path fill-rule="evenodd" clip-rule="evenodd" d="M21.6651 20.7352C21.6651 20.7352 18.5627 22.264 18.0555 22.5832C17.5467 22.9024 17.3539 23.0504 17.1035 23.4184C16.3179 24.5736 16.6179 26.1464 17.7731 26.9312C18.9275 27.7168 20.5003 27.416 21.2851 26.2616C21.5419 25.8856 21.5835 25.6784 21.7147 25.0416C21.8451 24.4056 22.0619 21.0032 22.0619 21.0032C22.0851 20.7328 21.9067 20.612 21.6651 20.7352Z" fill="#26A9E0"/>
<path fill-rule="evenodd" clip-rule="evenodd" d="M14.2119 24.1715L12.5647 23.5267L13.8495 22.3107C13.9623 22.2051 13.9655 22.0259 13.8599 21.9147L13.3415 21.3667C13.2351 21.2547 13.0575 21.2507 12.9455 21.3563L11.7783 22.4619L11.4703 20.8835C11.4407 20.7315 11.2927 20.6315 11.1407 20.6611L10.4007 20.8059C10.2495 20.8355 10.1495 20.9835 10.1791 21.1347L10.4871 22.7131L8.9895 22.1267C8.8455 22.0707 8.6823 22.1419 8.6263 22.2859L8.3511 22.9883C8.2943 23.1315 8.3655 23.2947 8.5095 23.3515L10.1567 23.9963L8.8719 25.2123C8.7607 25.3187 8.7559 25.4971 8.8623 25.6083L9.3807 26.1563C9.4863 26.2691 9.6639 26.2731 9.7767 26.1675L10.9439 25.0619L11.2519 26.6403C11.2815 26.7915 11.4295 26.8907 11.5807 26.8619L12.3215 26.7179C12.4727 26.6883 12.5719 26.5395 12.5431 26.3883L12.2351 24.8099L13.7319 25.3963C13.8759 25.4523 14.0399 25.3811 14.0951 25.2379L14.3711 24.5347C14.4271 24.3907 14.3559 24.2275 14.2119 24.1715Z" fill="#26A9E0"/>
</svg>
