<svg width="32" height="32" viewBox="0 0 32 32" fill="none" xmlns="http://www.w3.org/2000/svg">
<path fill-rule="evenodd" clip-rule="evenodd" d="M22.4119 8.44264C21.9807 8.44264 21.5623 8.49864 21.1631 8.60264C20.4175 6.48584 18.3999 4.96904 16.0287 4.96904C13.1223 4.96904 10.7471 7.24584 10.5919 10.113C10.4135 10.0906 10.2335 10.0738 10.0495 10.0738C7.78793 10.0738 5.95513 11.9066 5.95513 14.1682C5.95513 16.4298 7.78793 18.2634 10.0495 18.2634H22.4119C25.1239 18.2634 27.3223 16.065 27.3223 13.353C27.3223 10.641 25.1239 8.44264 22.4119 8.44264Z" fill="#D0D2D3"/>
<path fill-rule="evenodd" clip-rule="evenodd" d="M15.865 20.1981C15.865 20.1981 14.381 20.9293 14.1378 21.0821C13.8938 21.2357 13.8018 21.3061 13.6818 21.4821C13.3066 22.0349 13.4498 22.7877 14.0026 23.1629C14.5554 23.5389 15.3082 23.3957 15.6834 22.8429C15.8058 22.6629 15.8266 22.5637 15.889 22.2589C15.9506 21.9549 16.0554 20.3269 16.0554 20.3269C16.0658 20.1973 15.981 20.1389 15.865 20.1981Z" fill="#26A9E0"/>
<path fill-rule="evenodd" clip-rule="evenodd" d="M12.015 20.1981C12.015 20.1981 10.531 20.9293 10.2878 21.0821C10.0438 21.2357 9.95185 21.3061 9.83185 21.4821C9.45665 22.0349 9.59985 22.7877 10.1526 23.1629C10.7054 23.5389 11.4574 23.3957 11.8334 22.8429C11.9558 22.6629 11.9766 22.5637 12.0382 22.2589C12.1006 21.9549 12.2046 20.3269 12.2046 20.3269C12.2166 20.1973 12.131 20.1389 12.015 20.1981Z" fill="#26A9E0"/>
<path fill-rule="evenodd" clip-rule="evenodd" d="M19.6463 20.1981C19.6463 20.1981 18.1623 20.9293 17.9199 21.0821C17.6759 21.2357 17.5839 21.3061 17.4631 21.4821C17.0879 22.0349 17.2311 22.7877 17.7839 23.1629C18.3367 23.5389 19.0895 23.3957 19.4647 22.8429C19.5879 22.6629 19.6079 22.5637 19.6703 22.2589C19.7327 21.9549 19.8367 20.3269 19.8367 20.3269C19.8479 20.1973 19.7623 20.1389 19.6463 20.1981Z" fill="#26A9E0"/>
<path fill-rule="evenodd" clip-rule="evenodd" d="M15.865 24.1973C15.865 24.1973 14.381 24.9285 14.1378 25.0813C13.8938 25.2341 13.8018 25.3053 13.6818 25.4813C13.3066 26.0341 13.4498 26.7869 14.0026 27.1621C14.5554 27.5381 15.3082 27.3949 15.6834 26.8421C15.8058 26.6621 15.8266 26.5629 15.889 26.2581C15.9506 25.9541 16.0554 24.3253 16.0554 24.3253C16.0658 24.1957 15.981 24.1381 15.865 24.1973Z" fill="#26A9E0"/>
<path fill-rule="evenodd" clip-rule="evenodd" d="M19.6463 24.1973C19.6463 24.1973 18.1623 24.9285 17.9199 25.0813C17.6759 25.2341 17.5839 25.3053 17.4631 25.4813C17.0879 26.0341 17.2311 26.7869 17.7839 27.1621C18.3367 27.5381 19.0895 27.3949 19.4647 26.8421C19.5879 26.6621 19.6079 26.5629 19.6703 26.2581C19.7327 25.9541 19.8367 24.3253 19.8367 24.3253C19.8479 24.1957 19.7623 24.1381 19.6463 24.1973Z" fill="#26A9E0"/>
<path fill-rule="evenodd" clip-rule="evenodd" d="M23.4627 20.1981C23.4627 20.1981 21.9787 20.9293 21.7347 21.0821C21.4915 21.2357 21.3987 21.3061 21.2795 21.4821C20.9035 22.0349 21.0467 22.7877 21.6003 23.1629C22.1523 23.5389 22.9051 23.3957 23.2803 22.8429C23.4035 22.6629 23.4235 22.5637 23.4859 22.2589C23.5483 21.9549 23.6523 20.3269 23.6523 20.3269C23.6643 20.1973 23.5787 20.1389 23.4627 20.1981Z" fill="#26A9E0"/>
</svg>
