<svg width="32" height="32" viewBox="0 0 32 32" fill="none" xmlns="http://www.w3.org/2000/svg">
<path fill-rule="evenodd" clip-rule="evenodd" d="M6.35761 15.1603H26.0736C26.5936 15.1603 27.02 14.7843 27.02 14.3251C27.02 13.8659 26.5936 13.4907 26.0736 13.4907H6.35761C5.83681 13.4907 5.41121 13.8659 5.41121 14.3251C5.41121 14.7843 5.83681 15.1603 6.35761 15.1603Z" fill="#26A9E0"/>
<path fill-rule="evenodd" clip-rule="evenodd" d="M26.0733 17.2368H6.35727C5.83727 17.2368 5.41087 17.6128 5.41087 18.072C5.41087 18.5312 5.83727 18.9064 6.35727 18.9064H26.0733C26.5941 18.9064 27.0197 18.5312 27.0197 18.072C27.0197 17.6128 26.5941 17.2368 26.0733 17.2368Z" fill="#26A9E0"/>
<path fill-rule="evenodd" clip-rule="evenodd" d="M23.4705 20.9438H8.96015C8.44015 20.9438 8.01375 21.3198 8.01375 21.779C8.01375 22.2374 8.44015 22.6134 8.96015 22.6134H23.4705C23.9913 22.6134 24.4169 22.2374 24.4169 21.779C24.4169 21.3198 23.9913 20.9438 23.4705 20.9438Z" fill="#26A9E0"/>
<path fill-rule="evenodd" clip-rule="evenodd" d="M8.96039 11.4923H23.4708C23.9916 11.4923 24.4172 11.1163 24.4172 10.6571C24.4172 10.1979 23.9916 9.82185 23.4708 9.82185H8.96039C8.44039 9.82185 8.01399 10.1979 8.01399 10.6571C8.01399 11.1163 8.44039 11.4923 8.96039 11.4923Z" fill="#26A9E0"/>
</svg>
