<svg width="32" height="32" viewBox="0 0 32 32" fill="none" xmlns="http://www.w3.org/2000/svg">
<path fill-rule="evenodd" clip-rule="evenodd" d="M11.7904 26.2274C11.7656 26.9218 11.1784 27.4658 10.4848 27.441C9.78798 27.4154 9.24558 26.8306 9.27118 26.1362C9.29598 25.4426 9.87918 24.897 10.576 24.9226C11.2704 24.9474 11.816 25.5338 11.7904 26.2274Z" fill="#FF9933"/>
<path fill-rule="evenodd" clip-rule="evenodd" d="M5.68888 14.0954C5.66408 14.7906 5.07848 15.3346 4.38488 15.309C3.68808 15.2834 3.14568 14.6986 3.17128 14.0042C3.19608 13.3106 3.77928 12.7658 4.47608 12.7906C5.17048 12.8154 5.71448 13.4018 5.68888 14.0954Z" fill="#FF9933"/>
<path fill-rule="evenodd" clip-rule="evenodd" d="M7.73333 6.84849C7.70773 7.54289 7.12293 8.08689 6.42933 8.06209C5.73253 8.03649 5.18933 7.45169 5.21493 6.75729C5.23973 6.06289 5.82373 5.51809 6.52053 5.54369C7.21493 5.56849 7.75813 6.15489 7.73333 6.84849Z" fill="#FF9933"/>
<path fill-rule="evenodd" clip-rule="evenodd" d="M8.6088 20.368C8.584 21.0632 7.9984 21.6072 7.3048 21.5816C6.608 21.556 6.0656 20.9712 6.0912 20.2768C6.116 19.5832 6.6992 19.0384 7.396 19.0632C8.0904 19.088 8.6344 19.6744 8.6088 20.368Z" fill="#FF9933"/>
<path fill-rule="evenodd" clip-rule="evenodd" d="M13.1846 7.67425C15.015 7.74065 16.6014 8.24385 17.6182 8.98705C18.1686 8.66705 18.507 8.24545 18.5246 7.77265C18.5646 6.68945 16.9006 5.74945 14.8078 5.67265C12.7166 5.59665 10.9886 6.41345 10.9494 7.49665C10.9454 7.60785 10.9598 7.71665 10.9902 7.82385C11.6798 7.69905 12.423 7.64705 13.1846 7.67425Z" fill="#FF9933"/>
<path fill-rule="evenodd" clip-rule="evenodd" d="M8.68222 12.2258C9.05502 11.873 9.53502 11.5538 10.1182 11.2826C11.503 10.6386 13.3158 10.3226 15.2222 10.3906C16.3758 10.433 17.4542 10.609 18.4062 10.8898C18.359 9.42664 16.0534 8.17464 13.1702 8.06984C10.223 7.96264 7.78942 9.09544 7.73502 10.5994C7.71342 11.193 8.06622 11.7554 8.68222 12.2258Z" fill="#FF9933"/>
<path fill-rule="evenodd" clip-rule="evenodd" d="M11.7708 17.2782C11.8309 15.6182 14.2613 14.4038 17.3021 14.5142C18.706 14.5646 20.0229 14.895 21.0077 15.4446C21.1933 15.5478 21.3621 15.6566 21.5164 15.7702C21.8061 15.399 21.9717 14.9934 21.9877 14.563C22.0589 12.6166 19.0229 10.9254 15.2077 10.7862C11.3925 10.6478 8.24205 12.1142 8.17085 14.0614C8.12125 15.4206 9.58605 16.6534 11.7708 17.323C11.7708 17.3078 11.7701 17.2934 11.7708 17.2782Z" fill="#FF9933"/>
<path fill-rule="evenodd" clip-rule="evenodd" d="M12.7416 18.0602C13.9528 17.497 15.5368 17.2202 17.2016 17.2794C18.8664 17.341 20.4256 17.7322 21.592 18.3818C21.6896 18.4354 21.7816 18.4906 21.8704 18.5474C22.0872 18.2746 22.2112 17.9754 22.2232 17.6586C22.2736 16.2418 20.064 15.0098 17.288 14.9098C14.5104 14.809 12.2176 15.8762 12.1664 17.293C12.1552 17.6106 12.2568 17.917 12.4528 18.205C12.5456 18.1554 12.6416 18.1066 12.7416 18.0602Z" fill="#FF9933"/>
<path fill-rule="evenodd" clip-rule="evenodd" d="M18.44 20.5305C19.7744 20.5793 21.0248 20.8929 21.9616 21.4153C22.2536 21.5777 22.504 21.7553 22.716 21.9457C22.9384 21.6401 23.0672 21.3081 23.08 20.9585C23.1416 19.2657 20.5032 17.7961 17.1872 17.6753C13.8712 17.5545 11.1328 18.8289 11.0712 20.5217C11.0368 21.4801 11.8672 22.3665 13.196 22.9777C13.4272 21.4921 15.6664 20.4305 18.44 20.5305Z" fill="#FF9933"/>
<path fill-rule="evenodd" clip-rule="evenodd" d="M24.6837 26.3547C24.6413 27.5115 22.7701 28.3827 20.5037 28.3003C18.2365 28.2179 16.4333 27.2131 16.4757 26.0563C16.5181 24.8995 18.3893 24.0283 20.6557 24.1107C22.9229 24.1931 24.7261 25.1979 24.6837 26.3547Z" fill="#FF9933"/>
<path fill-rule="evenodd" clip-rule="evenodd" d="M20.6705 23.7157C21.5057 23.7461 22.2769 23.8949 22.9321 24.1301C23.0361 23.9405 23.0945 23.7397 23.1025 23.5317C23.1521 22.1885 21.0569 21.0221 18.4257 20.9261C15.7937 20.8309 13.6209 21.8413 13.5721 23.1853C13.5369 24.1549 14.6193 25.0325 16.2145 25.4813C16.7057 24.3829 18.5017 23.6365 20.6705 23.7157Z" fill="#FF9933"/>
<path fill-rule="evenodd" clip-rule="evenodd" d="M23.7806 8.49849C23.7558 9.19289 23.1702 9.73689 22.4766 9.71209C21.7798 9.68649 21.2374 9.10169 21.263 8.40729C21.2878 7.71289 21.871 7.16809 22.5678 7.19369C23.2622 7.21849 23.8062 7.80489 23.7806 8.49849Z" fill="#FF9933"/>
<path fill-rule="evenodd" clip-rule="evenodd" d="M27.4127 22.3727C27.3871 23.0679 26.8023 23.6119 26.1079 23.5871C25.4111 23.5607 24.8687 22.9759 24.8943 22.2815C24.9199 21.5879 25.5023 21.0431 26.1991 21.0679C26.8943 21.0927 27.4375 21.6791 27.4127 22.3727Z" fill="#FF9933"/>
<path fill-rule="evenodd" clip-rule="evenodd" d="M26.1526 15.9672C26.127 16.6616 25.5422 17.2056 24.8486 17.1808C24.1518 17.1552 23.6086 16.5704 23.6342 15.876C23.6598 15.1824 24.243 14.6368 24.9398 14.6624C25.6342 14.6872 26.1774 15.2736 26.1526 15.9672Z" fill="#FF9933"/>
</svg>
